<svg width="162" height="34" viewBox="0 0 162 34" fill="none" xmlns="http://www.w3.org/2000/svg" data-v-08481db5=""><g clip-path="url(#clip0_159_7790)"><path d="M32.8871 13.6482L32.8674 13.556L27.6863 16.2966L26.2751 17.0454L23.026 18.7649L21.4857 19.5774L16.7466 22.0919C16.6694 22.1308 16.5799 22.1375 16.4979 22.1103C16.4158 22.0831 16.3479 22.0243 16.309 21.9469L15.8911 21.0817L15.6854 20.6754C15.6571 20.6178 15.6124 20.5698 15.557 20.5374C15.5017 20.5051 15.438 20.4898 15.3741 20.4936C15.3101 20.4973 15.2487 20.5199 15.1974 20.5585C15.1462 20.5971 15.1074 20.65 15.0859 20.7106L14.7534 21.6768L14.051 23.7103L13.3946 25.6362L13.3815 25.6735L14.0685 25.858L18.7595 27.1295L18.7989 27.1053L17.9631 25.3815H17.9762L17.9587 25.3529C17.9541 25.3452 17.949 25.3379 17.9434 25.331V25.2827L18.1928 25.1531C18.189 25.1456 18.1838 25.1389 18.1775 25.1333C18.185 25.1382 18.191 25.1451 18.195 25.1531L29.6423 19.2173C29.5811 19.6148 29.5001 20.0078 29.4039 20.3921C28.8352 22.6666 27.672 24.7476 26.0344 26.4202C25.8988 26.5563 25.7631 26.6903 25.6231 26.8221C25.5159 26.9209 25.4043 27.0175 25.3015 27.1119C25.1395 27.2547 24.9733 27.393 24.8048 27.527C24.6363 27.6609 24.4613 27.7927 24.2862 27.9201L24.1965 27.9837L24.1068 28.0452L23.9252 28.1682C23.3735 28.5381 22.7941 28.8648 22.1924 29.1454C21.9736 29.2508 21.7373 29.3518 21.501 29.4441C21.3566 29.5034 21.21 29.5583 21.0634 29.611C20.9168 29.6637 20.7658 29.7142 20.6258 29.7625L20.4748 29.8086C20.4245 29.8262 20.3742 29.8394 20.3217 29.8547C17.5221 30.6644 14.5344 30.5223 11.8237 29.4507L11.7865 29.4353C11.4452 29.3013 11.1126 29.1498 10.7888 28.9961C10.6509 28.9258 10.5131 28.8556 10.3753 28.7765C10.2374 28.6974 10.1061 28.625 9.97049 28.5569C9.83484 28.4888 9.70794 28.3944 9.57666 28.3109C9.51103 28.2692 9.44539 28.2275 9.38412 28.1836C9.06031 27.964 8.74962 27.7444 8.44987 27.4984C8.32734 27.4018 8.2092 27.303 8.09323 27.202L7.74754 26.8945L7.50249 26.6617C7.42153 26.5827 7.34058 26.5014 7.264 26.4224C6.97738 26.1281 6.70607 25.8251 6.45008 25.5066C6.28161 25.287 6.11752 25.0828 5.96217 24.8654C5.55813 24.2998 5.19963 23.7028 4.89008 23.0801C4.88221 23.0676 4.87561 23.0543 4.87038 23.0405C4.86226 23.0278 4.85496 23.0146 4.84851 23.001C4.70629 22.7089 4.57064 22.4081 4.4503 22.105C4.09122 21.2085 3.83291 20.2745 3.68014 19.3205C3.55404 18.6077 3.48599 17.8857 3.47666 17.1618C3.47599 16.6547 3.50521 16.148 3.56418 15.6444C3.63077 15.059 3.73602 14.4787 3.87924 13.9073C3.93175 13.7031 3.98864 13.4989 4.0499 13.299C4.22624 12.7083 4.44563 12.1314 4.70629 11.573C4.72598 11.5269 4.74567 11.483 4.76755 11.439C5.47018 9.97865 6.43431 8.66037 7.61189 7.54991C7.86788 7.30615 8.1348 7.07557 8.41049 6.85377L8.58333 6.71542C8.70148 6.62319 8.82182 6.53535 8.94216 6.44751L9.12376 6.31795C9.29223 6.19936 9.46289 6.08517 9.63793 5.97757C9.81296 5.86996 9.98581 5.75797 10.1652 5.65915C10.3446 5.56033 10.524 5.46151 10.7078 5.36927C10.8916 5.27704 11.082 5.18481 11.2723 5.10136C11.3402 5.06842 11.408 5.03987 11.478 5.00913L11.9156 4.83564C12.0622 4.78074 12.2066 4.72804 12.3532 4.67753C13.7288 4.20204 15.1735 3.95937 16.6284 3.95944H16.9041C17.0879 3.95944 17.2695 3.95944 17.4511 3.9814C17.5933 3.9814 17.7333 4.00116 17.8734 4.01434C18.0951 4.0363 18.3139 4.06265 18.5298 4.09339C18.8295 4.13512 19.1249 4.19002 19.4181 4.2537C19.6237 4.29762 19.8272 4.34813 20.0307 4.40084C20.3086 4.4755 20.5799 4.55895 20.849 4.64898C21.0328 4.71267 21.2166 4.77855 21.396 4.85102C21.5754 4.92348 21.7548 4.99595 21.932 5.07062L22.1946 5.1914L22.3893 5.28583C22.5184 5.34951 22.6475 5.41319 22.7744 5.48127L22.9647 5.58448L19.9257 7.15902L14.1385 10.1719L10.9726 11.8058L10.8588 11.5862L10.1521 10.2181C10.123 10.1618 10.0782 10.1152 10.0233 10.084C9.96828 10.0528 9.90546 10.0383 9.84242 10.0423C9.77939 10.0462 9.71885 10.0685 9.66818 10.1063C9.6175 10.1441 9.57887 10.1959 9.55697 10.2554L8.53301 13.0729L8.34485 13.5823L7.98165 14.5727C7.96463 14.6158 7.95686 14.662 7.95885 14.7083C7.96084 14.7546 7.97255 14.8 7.9932 14.8414C8.01385 14.8829 8.04298 14.9195 8.07869 14.9489C8.11441 14.9783 8.15589 14.9997 8.20044 15.0119L8.72555 15.1459L13.1277 16.2571L13.2349 16.1978L12.5785 14.9285C12.5392 14.8518 12.5316 14.7627 12.5574 14.6804C12.5833 14.5982 12.6404 14.5295 12.7164 14.4893L16.2587 12.6161L18.3263 11.5181L25.7106 7.61359L28.5549 6.11372C28.599 6.09031 28.637 6.05695 28.666 6.01626C28.695 5.97557 28.7142 5.92866 28.7221 5.87926C28.7299 5.82985 28.7262 5.77929 28.7113 5.73156C28.6963 5.68383 28.6705 5.64025 28.6359 5.60425C26.8926 3.78128 24.7597 2.3794 22.398 1.5043C22.2821 1.46038 22.1683 1.41866 22.0523 1.37913C20.3072 0.776361 18.4741 0.469843 16.6284 0.472181C16.0858 0.472181 15.5505 0.497801 15.0225 0.549041C14.3434 0.614142 13.6689 0.721218 13.003 0.869658C12.5107 0.979458 12.025 1.11122 11.5502 1.26494C11.2964 1.344 11.047 1.43403 10.7997 1.52407C10.4715 1.64704 10.1433 1.781 9.83047 1.92594C6.55692 3.40492 3.84439 5.90185 2.09388 9.04758C1.93416 9.33306 1.78538 9.62294 1.64316 9.92598C1.16037 10.9264 0.779906 11.9734 0.507615 13.0509C0.168981 14.3947 -0.00153355 15.7757 1.03911e-05 17.1618C1.03911e-05 17.2694 1.03911e-05 17.3814 1.03911e-05 17.4868C0.0203896 18.6704 0.167091 19.8483 0.4376 21.0004C0.51199 21.3145 0.592945 21.6263 0.684838 21.9359C0.684838 21.9513 0.684838 21.9667 0.700154 21.9842C0.875615 22.574 1.08454 23.1533 1.32591 23.7191C1.73802 24.689 2.24057 25.6177 2.82684 26.4926C2.99094 26.732 3.15941 26.9714 3.33444 27.2042C3.67139 27.6434 4.0324 28.0826 4.4131 28.4976L4.49187 28.5832C5.28563 29.434 6.16557 30.1994 7.11741 30.8671C7.3362 31.0252 7.57031 31.1767 7.80224 31.3217C10.4467 32.9858 13.5072 33.863 16.6284 33.8515C17.0945 33.8515 17.5561 33.8339 18.0134 33.7944C20.6559 33.577 23.2075 32.7244 25.4524 31.3085C25.7806 31.1043 26.1088 30.8869 26.4086 30.6497C27.1122 30.1339 27.7749 29.5641 28.3908 28.9456C30.5145 26.8165 32.0224 24.1486 32.7536 21.2266C32.9184 20.5704 33.0419 19.9044 33.1234 19.2327C33.204 18.5967 33.2471 17.9566 33.2525 17.3155V17.1618C33.254 15.981 33.1315 14.8033 32.8871 13.6482ZM17.8602 25.1992V25.2102C17.8592 25.2153 17.8592 25.2205 17.8602 25.2256C17.8597 25.2168 17.8597 25.208 17.8602 25.1992Z" fill="#E6EDFF"></path> <path d="M34.5959 7.31713C34.6408 7.32869 34.6827 7.34981 34.7188 7.37905C34.7549 7.40829 34.7844 7.44498 34.8051 7.48662C34.8259 7.52827 34.8375 7.5739 34.8391 7.62044C34.8407 7.66697 34.8324 7.71332 34.8147 7.75633L33.2743 11.8014C33.2518 11.8595 33.213 11.9099 33.1627 11.9465C33.1124 11.9832 33.0527 12.0045 32.9906 12.0079C32.9286 12.0114 32.8668 11.9969 32.8128 11.9661C32.7587 11.9353 32.7146 11.8896 32.6858 11.8343L32.3357 11.1558C32.2953 11.0799 32.2267 11.023 32.1448 10.9975C32.0629 10.972 31.9742 10.98 31.8981 11.0196L31.7253 11.1118L31.2877 11.3314L28.614 12.7435L28.0692 13.0333L18.9805 17.847C18.9129 17.8813 18.8354 17.8907 18.7617 17.8733L18.5429 17.8206C18.496 17.8101 18.4521 17.7893 18.4143 17.7597C18.3764 17.7301 18.3456 17.6924 18.3241 17.6493L17.2848 15.5346C17.265 15.4967 17.2529 15.4552 17.2492 15.4126C17.2454 15.37 17.2501 15.3271 17.2629 15.2863C17.2757 15.2455 17.2964 15.2076 17.3238 15.1748C17.3512 15.1421 17.3848 15.1151 17.4226 15.0954L26.6405 10.2181L27.2028 9.9194L29.8524 8.51835L30.29 8.28557L30.4541 8.19773C30.4917 8.17785 30.5251 8.15071 30.5523 8.11787C30.5795 8.08503 30.6 8.04713 30.6126 8.00635C30.6252 7.96556 30.6296 7.92268 30.6257 7.88016C30.6218 7.83763 30.6096 7.79631 30.5897 7.75853L30.0449 6.70445C30.0202 6.64929 30.0113 6.58831 30.0192 6.52835C30.0271 6.4684 30.0516 6.41185 30.0898 6.36507C30.128 6.31829 30.1784 6.28313 30.2354 6.26356C30.2924 6.24398 30.3538 6.24077 30.4125 6.25427L32.9308 6.8955L34.5959 7.31713Z" fill="#E6EDFF"></path></g> <path d="M60.9881 24.3084H58.1324L57.903 22.2602C57.444 22.9513 56.7556 23.5329 55.8377 24.0049C54.9369 24.4601 53.849 24.6877 52.5742 24.6877C50.0585 24.6877 47.9253 23.8364 46.1745 22.1338C44.4237 20.4312 43.5483 18.1723 43.5483 15.3571C43.5483 12.5587 44.4492 10.2998 46.251 8.58038C48.0698 6.86092 50.254 6.00119 52.8036 6.00119C55.0133 6.00119 56.8151 6.5322 58.2089 7.59422C59.6197 8.65623 60.5716 9.96269 61.0646 11.5136L57.699 12.702C57.427 11.7749 56.8746 10.9741 56.0417 10.2998C55.2258 9.60868 54.1465 9.2631 52.8036 9.2631C51.2738 9.2631 49.9395 9.78568 48.8007 10.8308C47.6788 11.876 47.1179 13.3847 47.1179 15.3571C47.1179 17.2957 47.6618 18.8044 48.7497 19.8833C49.8545 20.9622 51.2143 21.5016 52.8291 21.5016C54.3249 21.5016 55.4723 21.1307 56.2712 20.389C57.0701 19.6304 57.5375 18.8381 57.6735 18.0121H51.9622V14.9778H60.9881V24.3084Z" fill="#E6EDFF"></path> <path d="M66.7567 16.6719H72.366C72.332 15.9808 72.077 15.3992 71.6011 14.9272C71.1421 14.4552 70.4622 14.2192 69.5613 14.2192C68.7454 14.2192 68.0825 14.4721 67.5726 14.9778C67.0627 15.4835 66.7907 16.0482 66.7567 16.6719ZM72.6974 19.9086L75.5276 20.743C75.1876 21.8893 74.5162 22.8333 73.5133 23.5751C72.5274 24.3168 71.2951 24.6877 69.8163 24.6877C68.0145 24.6877 66.4847 24.0892 65.2269 22.8923C63.9691 21.6786 63.3401 20.0603 63.3401 18.0374C63.3401 16.1157 63.9521 14.5479 65.1759 13.3342C66.3997 12.1036 67.8446 11.4883 69.5103 11.4883C71.4481 11.4883 72.9609 12.0614 74.0487 13.2077C75.1536 14.354 75.706 15.9302 75.706 17.9363C75.706 18.0711 75.6975 18.2228 75.6805 18.3914C75.6805 18.56 75.6805 18.6948 75.6805 18.796L75.655 18.973H66.6802C66.7142 19.7821 67.0372 20.4564 67.6491 20.9959C68.261 21.5353 68.9919 21.805 69.8418 21.805C71.2866 21.805 72.2385 21.1729 72.6974 19.9086Z" fill="#E6EDFF"></path> <path d="M82.5579 8.15051V11.8676H85.082V14.8513H82.5579V20.0603C82.5579 20.5829 82.6769 20.9537 82.9148 21.1729C83.1528 21.392 83.5267 21.5016 84.0367 21.5016C84.4956 21.5016 84.8441 21.4679 85.082 21.4005V24.1819C84.5891 24.3842 83.9517 24.4854 83.1698 24.4854C81.9459 24.4854 80.9771 24.1482 80.2632 23.4739C79.5493 22.7828 79.1923 21.8388 79.1923 20.6419V14.8513H76.9231V11.8676H77.5605C78.1894 11.8676 78.6654 11.6906 78.9883 11.3366C79.3283 10.9657 79.4983 10.4853 79.4983 9.89526V8.15051H82.5579Z" fill="#E6EDFF"></path> <path d="M99.4634 24.3084H88.1428V6.38048H99.4634V9.66768H91.6614V13.764H98.724V16.8742H91.6614V21.0212H99.4634V24.3084Z" fill="#E6EDFF"></path> <path d="M114.437 29.1127H111.123V23.0693C110.477 24.0977 109.312 24.6118 107.63 24.6118C105.862 24.6118 104.4 23.9965 103.244 22.7659C102.088 21.5185 101.51 19.9507 101.51 18.0627C101.51 16.2084 102.063 14.6659 103.168 13.4353C104.29 12.1879 105.743 11.5641 107.528 11.5641C108.514 11.5641 109.312 11.7496 109.924 12.1204C110.553 12.4744 110.978 12.8706 111.199 13.3089V11.8676H114.437V29.1127ZM105.794 15.5088C105.216 16.1325 104.927 16.9838 104.927 18.0627C104.927 19.1416 105.216 20.0013 105.794 20.6419C106.389 21.2825 107.137 21.6027 108.038 21.6027C108.938 21.6027 109.678 21.2825 110.256 20.6419C110.851 20.0013 111.148 19.1416 111.148 18.0627C111.148 16.9838 110.851 16.1325 110.256 15.5088C109.678 14.8851 108.938 14.5732 108.038 14.5732C107.137 14.5732 106.389 14.8851 105.794 15.5088Z" fill="#E6EDFF"></path> <path d="M126.176 24.3084C126.108 23.9712 126.074 23.5245 126.074 22.9682C125.751 23.5245 125.267 23.9459 124.621 24.2325C123.992 24.5022 123.32 24.6371 122.606 24.6371C121.128 24.6371 119.963 24.1735 119.113 23.2463C118.263 22.3023 117.839 21.1307 117.839 19.7316V11.8676H121.23V19.0488C121.23 19.7906 121.425 20.3974 121.816 20.8695C122.207 21.3246 122.776 21.5522 123.524 21.5522C124.255 21.5522 124.833 21.333 125.258 20.8947C125.683 20.4396 125.895 19.8411 125.895 19.0994V11.8676H129.287V22.0579C129.287 22.8502 129.329 23.6004 129.414 24.3084H126.176Z" fill="#E6EDFF"></path> <path d="M136.297 24.3084H132.905V11.8676H136.297V24.3084ZM132.497 7.79651C132.497 7.22335 132.701 6.73449 133.109 6.32991C133.517 5.90847 134.01 5.69775 134.588 5.69775C135.166 5.69775 135.659 5.90004 136.067 6.30462C136.475 6.7092 136.679 7.2065 136.679 7.79651C136.679 8.3528 136.475 8.83324 136.067 9.23782C135.659 9.6424 135.166 9.84468 134.588 9.84468C134.01 9.84468 133.517 9.6424 133.109 9.23782C132.701 8.83324 132.497 8.3528 132.497 7.79651Z" fill="#E6EDFF"></path> <path d="M144.108 8.15051V11.8676H146.633V14.8513H144.108V20.0603C144.108 20.5829 144.227 20.9537 144.465 21.1729C144.703 21.392 145.077 21.5016 145.587 21.5016C146.046 21.5016 146.395 21.4679 146.633 21.4005V24.1819C146.14 24.3842 145.502 24.4854 144.72 24.4854C143.497 24.4854 142.528 24.1482 141.814 23.4739C141.1 22.7828 140.743 21.8388 140.743 20.6419V14.8513H138.474V11.8676H139.111C139.74 11.8676 140.216 11.6906 140.539 11.3366C140.879 10.9657 141.049 10.4853 141.049 9.89526V8.15051H144.108Z" fill="#E6EDFF"></path> <path d="M154.121 29.2139H150.526L153.484 22.7406L148.155 11.8676H151.954L155.294 19.15L158.379 11.8676H162L154.121 29.2139Z" fill="#E6EDFF"></path> <defs><clipPath id="clip0_159_7790"><rect width="34.8387" height="33.3749" fill="white" transform="translate(0 0.472168)"></rect></clipPath></defs></svg>